<svg width="20" height="18" viewBox="0 0 20 18" fill="none" xmlns="http://www.w3.org/2000/svg">
<path d="M10.2469 4.73633V9.44518C10.2469 9.83758 10.5648 10.1536 10.9554 10.1536H13.9466" stroke="#24D6A5" stroke-width="2" stroke-linecap="round"/>
<path d="M2.39734 9.00257C2.39734 4.59024 5.9858 1 10.3981 1C14.8105 1 18.4007 4.59024 18.4007 9.00257C18.4007 13.4149 14.8105 17.0051 10.3999 17.0069C7.74363 17.0069 5.26669 15.6876 3.77342 13.4788" stroke="#24D6A5" stroke-width="2"/>
<path d="M3.46412 10C3.07922 10.6667 2.11697 10.6667 1.73207 10L0.86604 8.5C0.48114 7.83333 0.962266 7 1.73207 7L3.46412 7C4.23392 7 4.71504 7.83333 4.33014 8.5L3.46412 10Z" fill="#24D6A5"/>
</svg>
