<svg width="16" height="16" viewBox="0 0 16 16" fill="none" xmlns="http://www.w3.org/2000/svg">
<path d="M5.66629 7.22225C7.38451 7.22225 8.7774 5.82935 8.7774 4.11113C8.7774 2.39291 7.38451 1.00002 5.66629 1.00002C3.94807 1.00002 2.55518 2.39291 2.55518 4.11113C2.55518 5.82935 3.94807 7.22225 5.66629 7.22225Z" stroke="#3575FF" stroke-width="2" stroke-linecap="round" stroke-linejoin="round"/>
<path d="M1 14.9995V13.4439C1 12.6188 1.32778 11.8275 1.91122 11.244C2.49467 10.6606 3.28599 10.3328 4.11111 10.3328H7.22222C8.04734 10.3328 8.83866 10.6606 9.42211 11.244C10.0056 11.8275 10.3333 12.6188 10.3333 13.4439V14.9995" stroke="#3575FF" stroke-width="2" stroke-linecap="round" stroke-linejoin="round"/>
<path d="M11.1112 1.10256C11.7804 1.27391 12.3736 1.66311 12.7971 2.2088C13.2207 2.7545 13.4506 3.42565 13.4506 4.11645C13.4506 4.80725 13.2207 5.4784 12.7971 6.0241C12.3736 6.56979 11.7804 6.95899 11.1112 7.13034" stroke="#3575FF" stroke-width="2" stroke-linecap="round" stroke-linejoin="round"/>
<path d="M14.9997 15.0007V13.4452C14.9958 12.7585 14.7648 12.0924 14.3427 11.5508C13.9206 11.0092 13.3312 10.6224 12.6664 10.4507" stroke="#3575FF" stroke-width="2" stroke-linecap="round" stroke-linejoin="round"/>
</svg>
