<svg width="20" height="16" viewBox="0 0 20 16" fill="none" xmlns="http://www.w3.org/2000/svg">
<path d="M19 6.99883H15.06C14.9903 6.98936 14.9197 6.98936 14.85 6.99883H14.68C14.6277 7.02865 14.5776 7.06206 14.53 7.09883C14.4743 7.13559 14.4209 7.17567 14.37 7.21883C14.3366 7.25972 14.3065 7.30318 14.28 7.34883C14.2342 7.41182 14.194 7.47875 14.16 7.54883L12.56 11.9588L8.39 0.658825C8.31993 0.465775 8.19212 0.298979 8.02394 0.181106C7.85577 0.0632332 7.65537 0 7.45 0C7.24463 0 7.04423 0.0632332 6.87605 0.181106C6.70788 0.298979 6.58007 0.465775 6.51 0.658825L4.2 6.99883H1C0.734784 6.99883 0.48043 7.10418 0.292893 7.29172C0.105357 7.47926 0 7.73361 0 7.99883C0 8.26404 0.105357 8.5184 0.292893 8.70593C0.48043 8.89347 0.734784 8.99883 1 8.99883H5.3C5.35684 8.97146 5.4105 8.93793 5.46 8.89882C5.51568 8.86206 5.56911 8.82199 5.62 8.77883L5.71 8.64882C5.75766 8.58707 5.79794 8.51995 5.83 8.44883L7.45 3.91883L11.61 15.3388C11.6799 15.5321 11.8076 15.6991 11.9758 15.8172C12.144 15.9353 12.3445 15.9987 12.55 15.9988C12.7555 15.9987 12.956 15.9353 13.1242 15.8172C13.2924 15.6991 13.4201 15.5321 13.49 15.3388L15.79 8.99883H19C19.2652 8.99883 19.5196 8.89347 19.7071 8.70593C19.8946 8.5184 20 8.26404 20 7.99883C20 7.73361 19.8946 7.47926 19.7071 7.29172C19.5196 7.10418 19.2652 6.99883 19 6.99883Z" fill="#4524F8"/>
</svg>
