<svg width="18" height="18" viewBox="0 0 18 18" fill="none" xmlns="http://www.w3.org/2000/svg">
<path fill-rule="evenodd" clip-rule="evenodd" d="M1.02113 1.02113C1.67496 0.367313 2.56173 0 3.48637 0H12.396C13.3206 0 14.2074 0.367313 14.8612 1.02113C15.515 1.67496 15.8824 2.56173 15.8824 3.48637V4.66554C15.8824 5.20039 15.4488 5.63397 14.9139 5.63397C14.3791 5.63397 13.9455 5.20039 13.9455 4.66554V3.48637C13.9455 3.07542 13.7822 2.6813 13.4916 2.39071C13.2011 2.10012 12.8069 1.93687 12.396 1.93687H3.48637C3.07542 1.93687 2.6813 2.10012 2.39071 2.39071C2.10012 2.6813 1.93687 3.07542 1.93687 3.48637V12.396C1.93687 12.8069 2.10012 13.2011 2.39071 13.4916C2.6813 13.7822 3.07542 13.9455 3.48637 13.9455H4.66554C5.20039 13.9455 5.63397 14.3791 5.63397 14.9139C5.63397 15.4488 5.20039 15.8824 4.66554 15.8824H3.48637C2.56173 15.8824 1.67496 15.515 1.02113 14.8612C0.367313 14.2074 0 13.3206 0 12.396V3.48637C0 2.56173 0.367313 1.67496 1.02113 1.02113Z" fill="#F36643"/>
<path fill-rule="evenodd" clip-rule="evenodd" d="M16.1392 7.15468C17.3306 8.34609 17.9999 9.96198 17.9999 11.6469C17.9999 13.3318 17.3306 14.9477 16.1392 16.1391C14.9478 17.3305 13.3319 17.9998 11.647 17.9998C9.9621 17.9998 8.34621 17.3305 7.1548 16.1391C5.96339 14.9477 5.29407 13.3318 5.29407 11.6469C5.29407 9.96198 5.96339 8.34609 7.1548 7.15468C8.34621 5.96327 9.9621 5.29395 11.647 5.29395C13.3319 5.29395 14.9478 5.96327 16.1392 7.15468ZM14.818 8.47592C15.659 9.31691 16.1314 10.4575 16.1314 11.6469C16.1314 12.8362 15.659 13.9769 14.818 14.8179C13.977 15.6589 12.8364 16.1313 11.647 16.1313C10.4577 16.1313 9.31703 15.6589 8.47604 14.8179C7.63504 13.9769 7.16258 12.8362 7.16258 11.6469C7.16258 10.4575 7.63504 9.31691 8.47604 8.47592C9.31703 7.63492 10.4577 7.16246 11.647 7.16246C12.8364 7.16246 13.977 7.63492 14.818 8.47592Z" fill="#F36643"/>
<path fill-rule="evenodd" clip-rule="evenodd" d="M11.6475 9.5293C12.2322 9.5293 12.7063 9.92434 12.7063 10.4116L12.7063 11.8234C12.7063 12.3107 12.2322 12.7058 11.6475 12.7058C11.0627 12.7058 10.5887 12.3107 10.5887 11.8234L10.5887 10.4116C10.5887 9.92434 11.0627 9.5293 11.6475 9.5293Z" fill="#F36643"/>
<path fill-rule="evenodd" clip-rule="evenodd" d="M10.5883 11.6471C10.5883 11.0623 10.9833 10.5882 11.4706 10.5882H12.8824C13.3697 10.5882 13.7647 11.0623 13.7647 11.6471C13.7647 12.2318 13.3697 12.7059 12.8824 12.7059H11.4706C10.9833 12.7059 10.5883 12.2318 10.5883 11.6471Z" fill="#F36643"/>
</svg>
